<svg width="21" height="25" viewBox="0 0 21 25" fill="none" xmlns="http://www.w3.org/2000/svg">
<path d="M10.7078 6.03123C11.8471 6.03123 13.2752 5.30286 14.1257 4.3317C14.8959 3.45159 15.4575 2.22247 15.4575 0.993353C15.4575 0.826436 15.4414 0.659518 15.4094 0.522949C14.1417 0.568472 12.6173 1.32719 11.7027 2.34387C10.9806 3.11776 10.3227 4.3317 10.3227 5.576C10.3227 5.75809 10.3548 5.94018 10.3708 6.00088C10.4511 6.01605 10.5794 6.03123 10.7078 6.03123ZM6.69623 24.3922C8.25272 24.3922 8.9427 23.4058 10.8843 23.4058C12.858 23.4058 13.2912 24.3618 15.0242 24.3618C16.7251 24.3618 17.8644 22.8747 18.9395 21.418C20.143 19.7488 20.6404 18.11 20.6725 18.0341C20.5602 18.0038 17.3028 16.7443 17.3028 13.2087C17.3028 10.1435 19.8702 8.7626 20.0146 8.65638C18.3137 6.34989 15.7303 6.28919 15.0242 6.28919C13.1147 6.28919 11.5582 7.38174 10.5794 7.38174C9.52037 7.38174 8.12434 6.34989 6.47158 6.34989C3.32651 6.34989 0.133301 8.80813 0.133301 13.4515C0.133301 16.3346 1.32072 19.3846 2.78094 21.3573C4.03254 23.0265 5.12369 24.3922 6.69623 24.3922Z" fill="#000100"/>
</svg>
