<svg width="24" height="24" viewBox="0 0 24 24" fill="none" xmlns="http://www.w3.org/2000/svg">
<g id="circum:mobile-2">
<path id="Vector" d="M12 18.937C12.5523 18.937 13 18.4893 13 17.937C13 17.3847 12.5523 16.937 12 16.937C11.4477 16.937 11 17.3847 11 17.937C11 18.4893 11.4477 18.937 12 18.937Z" fill="#204496"/>
<path id="Vector_2" d="M16.727 21.937H7.27298C6.64559 21.8996 6.05836 21.6159 5.63905 21.1477C5.21975 20.6795 5.00228 20.0647 5.03398 19.437V4.56299C5.00228 3.93528 5.21975 3.32045 5.63905 2.85227C6.05836 2.38408 6.64559 2.10042 7.27298 2.06299H16.727C17.3544 2.10042 17.9416 2.38408 18.3609 2.85227C18.7802 3.32045 18.9977 3.93528 18.966 4.56299V19.437C18.9977 20.0647 18.7802 20.6795 18.3609 21.1477C17.9416 21.6159 17.3544 21.8996 16.727 21.937ZM7.27298 3.06299C6.91127 3.10119 6.57894 3.27966 6.34731 3.56009C6.11567 3.84052 6.00319 4.20057 6.03398 4.56299V19.437C6.00319 19.7994 6.11567 20.1595 6.34731 20.4399C6.57894 20.7203 6.91127 20.8988 7.27298 20.937H16.727C17.0887 20.8988 17.421 20.7203 17.6527 20.4399C17.8843 20.1595 17.9968 19.7994 17.966 19.437V4.56299C17.9968 4.20057 17.8843 3.84052 17.6527 3.56009C17.421 3.27966 17.0887 3.10119 16.727 3.06299H7.27298Z" fill="#204496"/>
</g>
</svg>
