<svg width="25" height="26" viewBox="0 0 25 26" fill="none" xmlns="http://www.w3.org/2000/svg">
<path fillRule="evenodd" clipRule="evenodd" d="M24.6873 13.1334C24.6873 12.2699 24.6104 11.4396 24.4675 10.6425H13.0796V15.3532H19.587C19.3067 16.8755 18.4548 18.1652 17.1742 19.0288V22.0844H21.0819C23.3683 19.9643 24.6873 16.8422 24.6873 13.1334Z" fill="#4285F4"/>
<path fillRule="evenodd" clipRule="evenodd" d="M13.0797 25.0347C16.3444 25.0347 19.0814 23.9442 21.082 22.0843L17.1743 19.0287C16.0916 19.7594 14.7066 20.1911 13.0797 20.1911C9.93046 20.1911 7.26486 18.0489 6.31404 15.1704H2.27441V18.3257C4.264 22.3057 8.35308 25.0347 13.0797 25.0347Z" fill="#34A853"/>
<path fillRule="evenodd" clipRule="evenodd" d="M6.31399 15.1702C6.07216 14.4395 5.93476 13.659 5.93476 12.8563C5.93476 12.0537 6.07216 11.2731 6.31399 10.5425V7.38721H2.27436C1.45545 9.03126 0.988281 10.8912 0.988281 12.8563C0.988281 14.8214 1.45545 16.6814 2.27436 18.3254L6.31399 15.1702Z" fill="#FBBC05"/>
<path fillRule="evenodd" clipRule="evenodd" d="M13.0797 5.52181C14.8549 5.52181 16.4488 6.13625 17.7019 7.343L21.17 3.85008C19.0759 1.88497 16.3389 0.678223 13.0797 0.678223C8.35308 0.678223 4.264 3.40724 2.27441 7.38728L6.31404 10.5425C7.26486 7.66406 9.93046 5.52181 13.0797 5.52181Z" fill="#EA4335" fill-opacity="0.97"/>
</svg>
