<svg width="1440" height="504" viewBox="0 0 1440 504" fill="none" xmlns="http://www.w3.org/2000/svg">
<rect y="-164" width="1440" height="592" fill="#204496"/>
<rect x="-180" y="275.234" width="546.154" height="217" rx="108.5" transform="rotate(-44.8585 -180 275.234)" fill="#EA4648"/>
<path d="M1584.7 71.9959C1571.73 90.9675 1555.15 107.199 1535.91 119.763C1516.66 132.327 1495.13 140.978 1472.55 145.222C1449.96 149.465 1426.76 149.219 1404.27 144.496C1381.78 139.774 1360.44 130.668 1341.47 117.698C1322.49 104.728 1306.26 88.1481 1293.7 68.9053C1281.14 49.6625 1272.48 28.1334 1268.24 5.54736C1264 -17.0387 1264.24 -40.2395 1268.97 -62.7304C1273.69 -85.2213 1282.79 -106.562 1295.76 -125.533L1440.23 -26.7687L1584.7 71.9959Z" fill="#0C1A3A"/>
<path d="M736.562 -0.651522C729.946 21.357 719.06 41.8469 704.526 59.6483C689.991 77.4497 672.093 92.2141 651.853 103.098C631.612 113.983 609.426 120.774 586.561 123.084C563.696 125.394 540.6 123.178 518.592 116.562C496.583 109.946 476.093 99.0605 458.292 84.5261C440.491 69.9917 425.726 52.0933 414.842 31.8529C403.958 11.6125 397.167 -10.5735 394.856 -33.4384C392.546 -56.3034 394.762 -79.3994 401.378 -101.408L568.97 -51.0297L736.562 -0.651522Z" fill="#99D6D5"/>
<path d="M1182.64 -6.25016C1182.66 22.8704 1176.94 51.7096 1165.82 78.6207C1154.69 105.532 1138.37 129.988 1117.8 150.593C1097.22 171.197 1072.78 187.547 1045.89 198.709C1018.99 209.87 990.158 215.624 961.037 215.643L960.893 -6.10644L1182.64 -6.25016Z" fill="#96FFEC"/>
<path d="M836.906 180.387C877.684 193.044 889.469 245.1 858.117 274.087L734.671 388.222C703.319 417.208 652.346 401.386 642.918 359.741L605.798 195.766C596.37 154.122 635.56 117.888 676.339 130.546L836.906 180.387Z" fill="#B83B5E"/>
</svg>
