<?xml version="1.0" encoding="UTF-8"?>
<svg id="Layer_2" data-name="Layer 2" xmlns="http://www.w3.org/2000/svg" xmlns:xlink="http://www.w3.org/1999/xlink" viewBox="0 0 451.05 407.97">
  <defs>
    <style>
      .cls-1 {
        stroke-width: .55px;
      }

      .cls-1, .cls-2, .cls-3, .cls-4, .cls-5, .cls-6, .cls-7, .cls-8, .cls-9, .cls-10, .cls-11, .cls-12, .cls-13, .cls-14, .cls-15 {
        fill: none;
      }

      .cls-1, .cls-2, .cls-3, .cls-7, .cls-8, .cls-12, .cls-13, .cls-14 {
        stroke-linecap: round;
        stroke-linejoin: round;
      }

      .cls-1, .cls-13, .cls-14 {
        stroke: #000;
      }

      .cls-16 {
        fill: #c1422d;
      }

      .cls-16, .cls-17, .cls-18, .cls-19, .cls-20, .cls-4, .cls-21, .cls-22, .cls-23, .cls-24, .cls-25, .cls-26, .cls-27, .cls-28 {
        stroke-width: 0px;
      }

      .cls-2 {
        stroke-width: .97px;
      }

      .cls-2, .cls-3, .cls-7, .cls-8, .cls-9, .cls-11, .cls-12 {
        stroke: #fff;
      }

      .cls-17 {
        isolation: isolate;
        opacity: .7;
      }

      .cls-17, .cls-24 {
        fill: #fff;
      }

      .cls-19 {
        fill: #294465;
      }

      .cls-20 {
        fill: #182b3d;
      }

      .cls-3 {
        stroke-width: .38px;
      }

      .cls-5 {
        stroke: #294465;
      }

      .cls-5, .cls-6, .cls-9, .cls-10, .cls-11, .cls-15 {
        stroke-miterlimit: 10;
      }

      .cls-5, .cls-10 {
        stroke-width: 3px;
      }

      .cls-21 {
        fill: #40637f;
      }

      .cls-22 {
        fill: #e2886f;
      }

      .cls-23 {
        fill: #325170;
      }

      .cls-29 {
        letter-spacing: -.01em;
      }

      .cls-6 {
        stroke: #4951f0;
        stroke-width: 1.05px;
      }

      .cls-25 {
        fill: #f9fbff;
      }

      .cls-7 {
        stroke-width: .35px;
      }

      .cls-26 {
        fill: #fafafa;
      }

      .cls-8, .cls-11 {
        stroke-width: 1.44px;
      }

      .cls-9, .cls-12 {
        stroke-width: 1.17px;
      }

      .cls-27 {
        fill: #eec4a6;
      }

      .cls-30 {
        clip-path: url(#clippath);
      }

      .cls-31 {
        font-family: Montserrat-Regular, Montserrat;
        font-size: 12px;
      }

      .cls-10 {
        stroke: #325170;
      }

      .cls-28 {
        fill: #e6e9fc;
      }

      .cls-13 {
        stroke-width: .26px;
      }

      .cls-14 {
        stroke-width: .63px;
      }

      .cls-15 {
        stroke: #afb9e8;
      }
    </style>
    <clipPath id="clippath">
      <path class="cls-4" d="m235.2,160.09h-75.24c-2.13,0-3.9-1.64-4.06-3.77l-5.28-47.71c-.13-1.81,1.3-3.36,3.12-3.36h76.7c1.88,0,3.44,1.45,3.58,3.33l5.24,47.15c.17,2.36-1.69,4.36-4.06,4.36Z"/>
    </clipPath>
  </defs>
  <g id="OBJECTS">
    <g>
      <g>
        <g>
          <path class="cls-19" d="m428.71,188.37c2.02-26.82-4.22-54.82-12.58-79.73-12.36-37.1-36.51-75.12-77.08-83.9-23.4-5.05-47.2.36-67.27,13.04-19.29,12.19-34.32,27.95-58.05,31-23.99,3.09-48.61,1.85-72.72,1.85-62,0-112.31,65.13-99.74,132.98,12.58,67.84,71.88,114.89,122.2,114.89,45.22,0,82.42-27.12,125.37-34.41,21.3-3.61,42.68.66,63.76-4.74,24.5-6.3,47.53-21.31,61.1-43.04,9.25-14.82,13.75-31.14,15.01-47.92Z"/>
          <path class="cls-17" d="m428.71,188.37c2.02-26.82-4.22-54.82-12.58-79.73-12.36-37.1-36.51-75.12-77.08-83.9-23.4-5.05-47.2.36-67.27,13.04-19.29,12.19-34.32,27.95-58.05,31-23.99,3.09-48.61,1.85-72.72,1.85-62,0-112.31,65.13-99.74,132.98,12.58,67.84,71.88,114.89,122.2,114.89,45.22,0,82.42-27.12,125.37-34.41,21.3-3.61,42.68.66,63.76-4.74,24.5-6.3,47.53-21.31,61.1-43.04,9.25-14.82,13.75-31.14,15.01-47.92Z"/>
        </g>
        <g>
          <g>
            <g>
              <path class="cls-11" d="m54.62,69.81c0,3.15-2.52,5.71-5.63,5.71s-5.63-2.56-5.63-5.71,2.52-5.71,5.63-5.71,5.63,2.56,5.63,5.71Z"/>
              <path class="cls-11" d="m398.52,129.23c0,3.15-2.52,5.71-5.63,5.71s-5.63-2.56-5.63-5.71,2.52-5.71,5.63-5.71,5.63,2.56,5.63,5.71Z"/>
              <line class="cls-8" x1="365.83" y1="22.57" x2="409.14" y2="22.57"/>
              <line class="cls-8" x1="3.97" y1="163.64" x2="34.5" y2="163.64"/>
              <line class="cls-8" x1="235.93" y1="68.52" x2="266.45" y2="68.52"/>
            </g>
            <g>
              <path class="cls-19" d="m439.48,155.09h-20.04c-1.35,0-2.45-1.1-2.45-2.45h0c0-1.35,1.1-2.45,2.45-2.45h20.04c1.35,0,2.45,1.1,2.45,2.45h0c0,1.35-1.1,2.45-2.45,2.45Z"/>
              <rect class="cls-19" x="208.11" y="32.79" width="9.86" height="9.55" rx="2.4" ry="2.4"/>
              <g>
                <g>
                  <rect class="cls-25" x="370.36" y="64.17" width="76.5" height="24.63" rx="2.45" ry="2.45"/>
                  <g>
                    <line class="cls-14" x1="382.13" y1="73.01" x2="430.18" y2="73.01"/>
                    <line class="cls-14" x1="382.13" y1="78.78" x2="401.16" y2="78.78"/>
                  </g>
                </g>
                <polygon class="cls-25" points="379.77 85.99 379.77 95.66 391.94 85.99 379.77 85.99"/>
              </g>
              <g>
                <path class="cls-19" d="m58.48,130.25h-27.4c-3.66,0-6.62-2.97-6.62-6.62h0c0-3.66,2.96-6.62,6.62-6.62h27.4c3.66,0,6.62,2.97,6.62,6.62h0c0,3.66-2.96,6.62-6.62,6.62Z"/>
                <g>
                  <path class="cls-24" d="m39.21,123.64c0,.94-.75,1.7-1.69,1.7s-1.7-.75-1.7-1.69c0-.94.75-1.7,1.69-1.7.94,0,1.7.75,1.7,1.69Z"/>
                  <path class="cls-24" d="m46.47,123.62c0,.94-.75,1.7-1.69,1.7-.94,0-1.7-.75-1.7-1.69,0-.94.75-1.7,1.69-1.7.94,0,1.7.75,1.7,1.69Z"/>
                  <path class="cls-24" d="m53.74,123.6c0,.94-.75,1.7-1.69,1.7-.94,0-1.7-.75-1.7-1.69s.75-1.7,1.69-1.7c.94,0,1.7.75,1.7,1.69Z"/>
                </g>
              </g>
              <rect class="cls-19" x="97.91" width="53.68" height="56.13" rx="3.6" ry="3.6"/>
            </g>
          </g>
          <g>
            <g>
              <g>
                <g>
                  <g>
                    <line class="cls-5" x1="76.36" y1="228.85" x2="31.6" y2="407.31"/>
                    <line class="cls-5" x1="81.97" y1="228.85" x2="126.73" y2="407.31"/>
                  </g>
                  <g>
                    <line class="cls-10" x1="124.75" y1="228.85" x2="79.99" y2="407.31"/>
                    <line class="cls-10" x1="130.36" y1="228.85" x2="175.12" y2="407.31"/>
                  </g>
                </g>
                <g>
                  <g>
                    <line class="cls-5" x1="323.12" y1="228.85" x2="278.36" y2="407.31"/>
                    <line class="cls-5" x1="328.72" y1="228.85" x2="373.48" y2="407.31"/>
                  </g>
                  <g>
                    <line class="cls-5" x1="371.5" y1="228.85" x2="326.74" y2="407.31"/>
                    <line class="cls-5" x1="377.11" y1="228.85" x2="421.87" y2="407.31"/>
                  </g>
                </g>
                <g>
                  <rect class="cls-23" x="10.76" y="221.39" width="88.59" height="14.92"/>
                  <rect class="cls-19" x="99.35" y="221.39" width="335.6" height="14.92"/>
                </g>
              </g>
              <g>
                <path class="cls-19" d="m49.1,192.64h26.32v18.91c0,5.35-4.35,9.7-9.7,9.7h-6.93c-5.35,0-9.7-4.35-9.7-9.7v-18.91h0Z"/>
                <path class="cls-19" d="m77.04,213.14h-3.78v-2.76h3.78c2.96,0,5.37-2.41,5.37-5.37s-2.41-5.37-5.37-5.37h-3.31v-2.76h3.31c4.48,0,8.13,3.65,8.13,8.13s-3.65,8.13-8.13,8.13Z"/>
              </g>
              <g>
                <g>
                  <g>
                    <path class="cls-18" d="m244.11,198.16H100.71c-3.85,0-7.05-2.97-7.34-6.82l-10.12-94.23c-.27-3.72,2.67-6.88,6.4-6.88h144.42c3.85,0,7.05,2.97,7.34,6.82l10.05,93.22c.31,4.26-3.06,7.89-7.34,7.89Z"/>
                    <path class="cls-19" d="m251.83,198.16H108.42c-3.85,0-7.05-2.97-7.34-6.82l-10.12-94.23c-.27-3.72,2.67-6.88,6.4-6.88h144.42c3.85,0,7.05,2.97,7.34,6.82l10.05,93.22c.31,4.26-3.06,7.89-7.34,7.89Z"/>
                    <path class="cls-25" d="m245.75,191.5H113.65c-3.74,0-6.85-2.89-7.12-6.62l-9.27-83.76c-.23-3.18,2.29-5.89,5.48-5.89h134.65c3.3,0,6.04,2.55,6.28,5.84l9.2,82.78c.3,4.14-2.97,7.66-7.12,7.66Z"/>
                  </g>
                  <g>
                    <path class="cls-18" d="m188.16,90.23h-34.12l-1.43-13.18c-.22-2.05,1.38-3.84,3.44-3.84h27.15c1.77,0,3.25,1.33,3.44,3.09l1.51,13.92Z"/>
                    <g>
                      <path class="cls-6" d="m176.91,81.81c0,2.91-2.36,5.27-5.27,5.27s-5.27-2.36-5.27-5.27,2.36-5.27,5.27-5.27,5.27,2.36,5.27,5.27Z"/>
                      <circle class="cls-25" cx="171.64" cy="81.81" r="1.94"/>
                    </g>
                    <path class="cls-16" d="m183.21,77.45c0,.96-.78,1.74-1.74,1.74s-1.74-.78-1.74-1.74.78-1.74,1.74-1.74,1.74.78,1.74,1.74Z"/>
                  </g>
                  <g>
                    <polygon class="cls-18" points="152.32 198.16 146.18 221.74 183.73 221.74 189.61 198.16 152.32 198.16"/>
                    <polygon class="cls-23" points="160.03 198.16 153.88 221.74 191.44 221.74 197.31 198.16 160.03 198.16"/>
                  </g>
                </g>
                <g>
                  <path class="cls-28" d="m235.2,160.09h-75.24c-2.13,0-3.9-1.64-4.06-3.77l-5.28-47.71c-.13-1.81,1.3-3.36,3.12-3.36h76.7c1.88,0,3.44,1.45,3.58,3.33l5.24,47.15c.17,2.36-1.69,4.36-4.06,4.36Z"/>
                  <g class="cls-30">
                    <path class="cls-19" d="m173.46,149.75h33.19l-4.23,21.86-37.62-1.25,2.26-15.78c.82-2.85,3.43-4.82,6.4-4.82Z"/>
                    <g>
                      <g>
                        <path class="cls-23" d="m214.23,125.62c.34,2.47-1.38,4.74-3.85,5.08-2.47.34-4.74-1.38-5.08-3.85-.34-2.47,1.38-4.74,3.85-5.08,2.47-.34,4.74,1.38,5.08,3.85Z"/>
                        <path class="cls-18" d="m211.88,116.27s3.77,3.86-2.26,5.65l-3.75-5.4,6.01-.25Z"/>
                        <path class="cls-18" d="m189.92,124.07c.21,5.86,5.37,10.44,11.51,10.21,6.14-.22,10.95-5.16,10.74-11.03s-5.37-10.44-11.51-10.21c-6.14.22-10.95,5.16-10.74,11.03Z"/>
                        <polygon class="cls-27" points="204.43 134.63 204.62 146.95 195.2 144.61 197.71 127.83 204.43 134.63"/>
                        <polygon class="cls-22" points="204.53 141.33 198.51 133.88 204.43 134.63 204.53 141.33"/>
                        <path class="cls-27" d="m210.46,117.16c.77.61,1.28,1.48,1.51,2.43.67,2.82,1.42,7.26,1.08,10.43-.39,3.74-4.26,7.3-9.44,6.51,0,0-6.2-.4-7.75-8.17-2.48-12.38,7.99-16.38,14.6-11.19Z"/>
                        <polygon class="cls-18" points="199.4 115.65 197.63 128.59 190.28 122.35 199.4 115.65"/>
                        <path class="cls-18" d="m198.99,118.66s16.17.47,14.66-4.84c-2.02-7.08-9.49-1.94-12.61-2.17-2.31-.17-7.19-.45-8.8,3.04-2.99,6.51,6.74,3.96,6.74,3.96Z"/>
                        <path class="cls-18" d="m192.25,116.27s-6.17,3.95-.96,12.54l4.19-12.54h-3.23Z"/>
                        <path class="cls-18" d="m214.11,113.29c0,2.56-2.2,4.64-4.92,4.64s-4.92-2.08-4.92-4.64,2.2-4.64,4.92-4.64,4.92,2.08,4.92,4.64Z"/>
                        <path class="cls-18" d="m206.6,109.34s-3.52,2.45-7.2,2.23l1.65,2.78,8.41-1.75-2.86-3.26Z"/>
                        <path class="cls-18" d="m211.64,117.31s-3.61,2.56-12.65,1.35l3.2-3.48,9.45,2.14Z"/>
                        <g>
                          <g>
                            <path class="cls-13" d="m209.9,127.43l.46,1.2c.04.16-.05.33-.21.37l-.73.16"/>
                            <circle class="cls-18" cx="205.87" cy="126.05" r=".73"/>
                            <circle class="cls-18" cx="211.64" cy="125.8" r=".67"/>
                            <path class="cls-18" d="m207.19,121.4l-5.23.89s.95-1.68,2.46-1.93c1.51-.25,2.77,1.04,2.77,1.04Z"/>
                            <path class="cls-18" d="m209.39,121.28l4.03.64s-.66-1.62-1.83-1.8c-1.16-.18-2.2,1.16-2.2,1.16Z"/>
                            <path class="cls-13" d="m209.9,130.95s-1.92,1-3.83-.58"/>
                          </g>
                          <g>
                            <path class="cls-3" d="m208.58,126c.03,1.87-1.42,3.42-3.25,3.45-1.83.03-3.34-1.45-3.38-3.33-.03-1.87,1.42-3.42,3.25-3.45,1.83-.03,3.34,1.45,3.38,3.33Z"/>
                            <path class="cls-7" d="m215.29,125.85c.03,1.8-1.05,3.27-2.43,3.3-1.38.03-2.52-1.41-2.55-3.21-.03-1.8,1.05-3.27,2.43-3.3,1.38-.03,2.52,1.41,2.55,3.21Z"/>
                            <path class="cls-3" d="m208.58,126s.72-.86,1.73-.06"/>
                            <line class="cls-3" x1="201.95" y1="126.12" x2="197.88" y2="126.78"/>
                          </g>
                        </g>
                        <path class="cls-19" d="m193.42,123.33s-1.14-7.92,3.76-11.84c0,0,3-1.99,5.11-.23,0,0-6.5,3.12-5.31,12.4l-3.56-.33Z"/>
                        <g>
                          <path class="cls-23" d="m199.04,126.07c.34,2.47-1.38,4.74-3.85,5.08-2.47.34-4.74-1.38-5.08-3.85-.34-2.47,1.38-4.74,3.85-5.08,2.47-.34,4.74,1.38,5.08,3.85Z"/>
                          <path class="cls-19" d="m195.84,126.43c.18,1.31-.73,2.52-2.04,2.7-1.31.18-2.52-.73-2.7-2.04-.18-1.31.73-2.51,2.04-2.7,1.31-.18,2.51.73,2.7,2.04"/>
                        </g>
                      </g>
                      <g>
                        <path class="cls-21" d="m212.88,147.15s5.64,3.3,6.55,11.44v11.59l-9.21-.32,2.66-22.71Z"/>
                        <g>
                          <path class="cls-21" d="m205.93,144.51s4.62.88,6.95,2.64l.69,41.61c-14.85,8.96-31.83.26-31.83.26l4.61-41.66s.6-2.35,7.06-2.85h12.54Z"/>
                          <path class="cls-27" d="m193.4,144.52s5.33-1.18,12.54,0c0,0,.68,4.29-5.11,4.47-6.27.2-7.43-4.46-7.43-4.46Z"/>
                        </g>
                        <path class="cls-21" d="m189.14,145.32s-13.9,2.29-15.55,24.87h17.1l1.12-14.61-2.68-10.26Z"/>
                      </g>
                    </g>
                  </g>
                </g>
              </g>
            </g>
            <g>
              <g>
                <g>
                  <path class="cls-12" d="m313.55,123.11c-.26,3.34-2.79,5.88-5.66,5.66-2.87-.22-4.99-3.11-4.74-6.45s2.79-5.88,5.66-5.66c2.87.22,4.99,3.11,4.74,6.45Z"/>
                  <polygon class="cls-27" points="340.08 134.05 345 165.97 322.63 163.81 321.96 133.95 340.08 134.05"/>
                  <polygon class="cls-22" points="330.44 143.34 322.44 155.44 322.03 141.58 330.44 143.34"/>
                  <path class="cls-27" d="m328.61,99.57s-19.81-3.02-20.88,14.19c-.49,7.94-.49,15.23-.41,21.61.09,6.76,6.01,11.95,12.73,11.18l19.72-1.49-11.16-45.49Z"/>
                  <path class="cls-27" d="m307.92,123.05l-3.51,6.18c-.26.6.18,1.28.83,1.28l3.97.72-1.29-8.18Z"/>
                  <path class="cls-18" d="m346.27,97.67h0c-1.83-1.05-7.21-3.1-9.7-3.55-15.47-2.8-40.22,2.96-17.09,14.32,0,0-4.95,3.83,4.5,18.08l4.46.57s-4.06,14.89,12.35,12.32c0,0,11.59-13.71,13.78-21.97,3.69-13.9-8.3-19.76-8.3-19.76Z"/>
                  <g>
                    <path class="cls-18" d="m318.44,98.01l11.68.89c-.44,5.74-6.07,10.06-12.48,9.57-6.41-.49-11.32-5.61-10.88-11.35s6.07-10.06,12.48-9.57c5.99.46,10.74,4.96,10.91,10.34l-11.71.12Z"/>
                    <path class="cls-18" d="m321.22,87.86s13.23,3.82,18.58,9.76c5.35,5.94-18.04,3.2-18.04,3.2l-.54-12.96Z"/>
                  </g>
                  <polygon class="cls-18" points="320.04 112.04 319.01 125.6 323.65 126.4 327.58 115.29 320.04 112.04"/>
                  <line class="cls-9" x1="321.39" y1="126.06" x2="303.17" y2="123.42"/>
                  <path class="cls-18" d="m306.29,115.31s.4-3.15,2.38-2.98c1.98.16,4.14,2.17,4.57,4.67l-6.95-1.69Z"/>
                  <g>
                    <path class="cls-19" d="m323.61,118.78s-1.33-17.33,10.5-24.9c0,0,4.65-1.87,8.93,2.53,0,0-12.05,3.03-11.58,23.94l-7.84-1.57Z"/>
                    <g>
                      <path class="cls-23" d="m337.78,125.74c.18,5.56-4.18,10.21-9.74,10.39-5.56.18-10.21-4.18-10.39-9.74-.18-5.56,4.18-10.21,9.74-10.39,5.56-.18,10.21,4.19,10.39,9.74Z"/>
                      <path class="cls-19" d="m331.58,125.9c.09,2.95-2.22,5.42-5.17,5.51-2.95.09-5.42-2.22-5.51-5.17-.09-2.95,2.22-5.42,5.17-5.51,2.95-.09,5.42,2.22,5.51,5.17"/>
                    </g>
                  </g>
                </g>
                <g>
                  <path class="cls-21" d="m343.9,162.52c-7.47-.31-12.29-.33-21.87.8-12.66,1.5-21.29,11.18-21.26,23.93l-.78,73.3,56.29,1.52s8.72-61.46,8.67-80.01c-.03-10.22-8-19.01-21.05-19.55Z"/>
                  <g>
                    <g>
                      <path class="cls-21" d="m270.71,246.89l3.53-17.65,16.52-29.08,1.27-2.4,10.32-19.51c2.92-7.29,10.96-11.11,18.46-8.76,8.09,2.53,12.5,11.25,9.73,19.26-1.98,5.74-6.74,15.03-11.89,24.85-.26.49-.52.99-.79,1.49-6.93,13-18.24,31.75-18.24,31.75-3.11,8.93-11.94,12.4-20.59,8.59h0c-1.24-.55-2.31-1.33-3.24-2.25h0s-.01-.02-.01-.02c-1.55-1.54-4.33-4.09-5.07-6.29Z"/>
                      <line class="cls-1" x1="325.46" y1="198.67" x2="300.15" y2="245.59"/>
                    </g>
                    <g>
                      <g>
                        <path class="cls-22" d="m205.73,207.76l-19.93-4.05c-1.11-.22-2.2.45-2.49,1.54h0c-.29,1.11.34,2.25,1.43,2.58l9.33,2.9,11.66-2.97Z"/>
                        <path class="cls-27" d="m238.84,216.67l-8.37-6.86s-6.5-8.44-16.71-9.52c-6.38-.67-10.32-2.09-12.38-3.06-1.07-.51-2.35-.18-3.01.8h0c-.7,1.05-.49,2.45.5,3.21,1.92,1.47,5.35,3.75,9.65,5.21l-24.82,2.24c-1.1.07-1.89,1.08-1.69,2.16h0c.14.76.74,1.36,1.5,1.49l28.74,4.77s16.01,4.51,20.09,7.03l6.51-7.48Z"/>
                      </g>
                      <g>
                        <path class="cls-21" d="m283.74,226.71c-1.22.21-52.89-16.94-52.89-16.94l-3.3,21.42,51.48,24.26,4.71-28.74Z"/>
                        <line class="cls-1" x1="276.77" y1="224.79" x2="287.87" y2="227.8"/>
                      </g>
                    </g>
                  </g>
                </g>
                <g>
                  <g>
                    <g>
                      <polygon class="cls-24" points="252.97 390.39 276.77 346.87 258.06 339.38 237.26 383.08 252.97 390.39"/>
                      <g>
                        <g>
                          <path d="m258.05,381.52c-4.38,1.94-9.53,2.81-15.55-.18,0,0-4.17-8.39-9.06-3.12,0,0-7.75,8.6-19.22,10.88-15.91,3.16-16.65,10.56-16.65,10.56l65.24.25s-.2-10.05-1.24-16.4c-.27-1.64-2-2.67-3.52-2Z"/>
                          <rect class="cls-24" x="197.55" y="399.79" width="65.24" height="7.36" transform="translate(458.78 807.82) rotate(-179.78)"/>
                        </g>
                        <path class="cls-2" d="m220.55,387.12s2.55-.02,4.54,3.48"/>
                        <path class="cls-2" d="m223.8,385.4s2.55-.02,4.54,3.48"/>
                        <path class="cls-2" d="m227.11,383.36s2.55-.02,4.54,3.48"/>
                      </g>
                    </g>
                    <polygon class="cls-20" points="275.11 273.27 236.55 364.88 269.54 372.55 309.72 288.55 275.11 273.27"/>
                  </g>
                  <g>
                    <path class="cls-23" d="m299.99,260.56l-41.64,2.65c-10.43.66-18.19,9.9-17.05,20.29h0c1.02,9.29,8.87,16.32,18.22,16.32h87.14s21.97-5.07,9.62-37.74l-56.29-1.52Z"/>
                    <g>
                      <g>
                        <polygon class="cls-24" points="207.02 390.39 230.81 346.87 212.1 339.38 191.3 383.08 207.02 390.39"/>
                        <g>
                          <g>
                            <path d="m212.1,381.52c-4.38,1.94-9.53,2.81-15.55-.18,0,0-4.17-8.39-9.06-3.12,0,0-7.75,8.6-19.22,10.88-15.91,3.16-16.65,10.56-16.65,10.56l65.24.25s-.2-10.05-1.24-16.4c-.27-1.64-2-2.67-3.52-2Z"/>
                            <rect class="cls-24" x="151.6" y="399.79" width="65.24" height="7.36" transform="translate(366.87 807.65) rotate(-179.78)"/>
                          </g>
                          <path class="cls-2" d="m174.59,387.12s2.55-.02,4.54,3.48"/>
                          <path class="cls-2" d="m177.84,385.4s2.55-.02,4.54,3.48"/>
                          <path class="cls-2" d="m181.16,383.36s2.55-.02,4.54,3.48"/>
                        </g>
                      </g>
                      <polygon class="cls-23" points="244.25 271.35 191.3 364.02 224.32 375.3 276.77 290.69 244.25 271.35"/>
                    </g>
                  </g>
                </g>
              </g>
              <g>
                <g>
                  <g>
                    <path class="cls-18" d="m262.52,394.59h0c-1-2.09-.12-4.59,1.97-5.59l55.73-19.02,3.62,7.56-55.73,19.02c-2.09,1-4.59.12-5.59-1.97Z"/>
                    <path class="cls-18" d="m273.3,400.08c0,3.93-3.19,7.12-7.12,7.12s-7.12-3.19-7.12-7.12,3.19-7.12,7.12-7.12,7.12,3.19,7.12,7.12Z"/>
                  </g>
                  <g>
                    <path class="cls-18" d="m385.74,394.59h0c1-2.09.12-4.59-1.97-5.59l-55.73-19.02-3.62,7.56,55.73,19.02c2.09,1,4.59.12,5.59-1.97Z"/>
                    <path class="cls-18" d="m374.96,400.08c0,3.93,3.19,7.12,7.12,7.12s7.12-3.19,7.12-7.12-3.19-7.12-7.12-7.12-7.12,3.19-7.12,7.12Z"/>
                  </g>
                  <g>
                    <path class="cls-18" d="m294.23,400.08c0,3.93-3.19,7.12-7.12,7.12s-7.12-3.19-7.12-7.12,3.19-7.12,7.12-7.12,7.12,3.19,7.12,7.12Z"/>
                    <path class="cls-18" d="m366.29,400.08c0,3.93-3.19,7.12-7.12,7.12s-7.12-3.19-7.12-7.12,3.19-7.12,7.12-7.12,7.12,3.19,7.12,7.12Z"/>
                    <path class="cls-19" d="m324.41,377.66h0c-2.31,0-4.19-1.88-4.19-4.19v-45.07h8.38v45.07c0,2.31-1.88,4.19-4.19,4.19Z"/>
                    <path class="cls-18" d="m283.46,394.59h0c-1-2.09-.12-4.59,1.97-5.59l35.87-19.02,3.62,7.56-35.87,19.02c-2.09,1-4.59.12-5.59-1.97Z"/>
                    <path class="cls-18" d="m365.88,394.59h0c1-2.09.12-4.59-1.97-5.59l-35.87-19.02-3.62,7.56,35.87,19.02c2.09,1,4.59.12,5.59-1.97Z"/>
                    <rect class="cls-18" x="316.97" y="313.31" width="14.89" height="26.06"/>
                  </g>
                </g>
                <g>
                  <path class="cls-19" d="m272.87,299.19h105.81c3.91,0,7.08,3.17,7.08,7.08h0c0,3.91-3.17,7.08-7.08,7.08h-105.81c-3.91,0-7.08-3.17-7.08-7.08h0c0-3.91,3.17-7.08,7.08-7.08Z"/>
                  <g>
                    <g>
                      <path class="cls-18" d="m383.66,287.66h-59.34c-5.37,0-9.2-5.19-7.63-10.32l28.93-94.5c1.03-3.36,4.12-5.65,7.63-5.65h59.34c5.37,0,9.2,5.19,7.63,10.32l-28.93,94.5c-1.03,3.36-4.12,5.65-7.63,5.65Z"/>
                      <path class="cls-19" d="m394.91,287.66h-59.34c-5.37,0-9.2-5.19-7.63-10.32l28.93-94.5c1.03-3.36,4.12-5.65,7.63-5.65h59.34c5.37,0,9.2,5.19,7.63,10.32l-28.93,94.5c-1.03,3.36-4.12,5.65-7.63,5.65Z"/>
                    </g>
                    <g>
                      <polygon class="cls-19" points="338.29 287.66 334.02 299.82 364.31 299.82 368.58 287.66 338.29 287.66"/>
                      <polygon class="cls-18" points="338.29 287.66 368.58 287.66 367.07 291.96 336.78 291.96 338.29 287.66"/>
                    </g>
                  </g>
                  <g>
                    <polygon class="cls-18" points="309.1 313.31 287.11 267.02 272.99 267.02 294.34 313.31 309.1 313.31"/>
                    <path class="cls-19" d="m300.38,260.99h-43.21c-3.91,0-7.08,3.17-7.08,7.08h0c0,3.91,3.17,7.08,7.08,7.08h43.21c3.91,0,7.08-3.17,7.08-7.08h0c0-3.91-3.17-7.08-7.08-7.08Z"/>
                  </g>
                </g>
              </g>
            </g>
            <line class="cls-15" y1="407.47" x2="451.05" y2="407.47"/>
          </g>
          <circle class="cls-19" cx="132.34" cy="26.63" r="1.1"/>
          <text class="cls-31" transform="translate(128.32 179.52)"><tspan x="0" y="0">Re</tspan><tspan class="cls-29" x="16.15" y="0">c</tspan><tspan x="22.93" y="0">ord</tspan></text>
        </g>
      </g>
      <g>
        <rect class="cls-26" x="112.22" y="19.34" width="19.46" height="17.44" rx="2.38" ry="2.38"/>
        <path class="cls-26" d="m133.46,25.02v5.29c0,.29.16.55.41.68l6.23,3.35c.52.28,1.15-.1,1.15-.68v-11.12c0-.55-.55-.93-1.06-.72l-6.23,2.48c-.3.12-.49.4-.49.72Z"/>
      </g>
    </g>
  </g>
</svg>