<svg width="22" height="21" viewBox="0 0 22 21" fill="none" xmlns="http://www.w3.org/2000/svg">
<path id="Vector" d="M22 19.4561V21H0V19.4561H1.46667V12.5083C1.46667 11.9776 1.56215 11.479 1.75313 11.0126C1.9441 10.5462 2.20382 10.1402 2.53229 9.79437C2.86076 9.44859 3.25035 9.17117 3.70104 8.96209C4.15174 8.75302 4.62917 8.64848 5.13333 8.64848H10.2667V4.40264C10.2667 4.33027 10.2934 4.26996 10.3469 4.22171C10.4003 4.17346 10.4691 4.13326 10.5531 4.10109C10.6372 4.06893 10.7212 4.04882 10.8052 4.04078C10.8892 4.03274 10.9542 4.0247 11 4.01666C11.0458 4.01666 11.1108 4.02068 11.1948 4.02872C11.2788 4.03676 11.359 4.05686 11.4354 4.08903C11.5118 4.12119 11.5806 4.1614 11.6417 4.20965C11.7028 4.2579 11.7333 4.32223 11.7333 4.40264V8.64848H16.8667C17.3708 8.64848 17.8444 8.74899 18.2875 8.95003C18.7306 9.15106 19.1163 9.42849 19.4448 9.78231C19.7733 10.1361 20.0368 10.5462 20.2354 11.0126C20.434 11.479 20.5333 11.9776 20.5333 12.5083V19.4561H22ZM5.13333 10.1924C4.85069 10.1924 4.58333 10.2447 4.33125 10.3492C4.07917 10.4538 3.85764 10.5985 3.66667 10.7835C3.47569 10.9684 3.31528 11.1855 3.18542 11.4348C3.05556 11.6841 2.97535 11.9575 2.94479 12.255C3.22743 12.5847 3.5559 12.838 3.93021 13.0149C4.30451 13.1918 4.70556 13.2803 5.13333 13.2803C5.6375 13.2803 6.07292 13.1758 6.43958 12.9667C6.80625 12.7576 7.15382 12.452 7.48229 12.05C7.56632 11.9535 7.65035 11.8771 7.73438 11.8208C7.8184 11.7645 7.92917 11.7364 8.06667 11.7364C8.19653 11.7364 8.30347 11.7645 8.3875 11.8208C8.47153 11.8771 8.55937 11.9535 8.65104 12.05C8.97188 12.444 9.31563 12.7455 9.68229 12.9546C10.049 13.1637 10.4882 13.2723 11 13.2803C11.5042 13.2803 11.9396 13.1758 12.3063 12.9667C12.6729 12.7576 13.0205 12.452 13.349 12.05C13.433 11.9535 13.517 11.8771 13.601 11.8208C13.6851 11.7645 13.7958 11.7364 13.9333 11.7364C14.0632 11.7364 14.1701 11.7645 14.2542 11.8208C14.3382 11.8771 14.426 11.9535 14.5177 12.05C14.8385 12.444 15.1823 12.7455 15.549 12.9546C15.9156 13.1637 16.3549 13.2723 16.8667 13.2803C17.2868 13.2803 17.684 13.1918 18.0583 13.0149C18.4326 12.838 18.7649 12.5847 19.0552 12.255C19.0247 11.9655 18.9483 11.6962 18.826 11.4469C18.7038 11.1976 18.5434 10.9765 18.3448 10.7835C18.1462 10.5905 17.9208 10.4457 17.6688 10.3492C17.4167 10.2527 17.1493 10.2005 16.8667 10.1924H5.13333ZM2.93333 19.4561H19.0667V14.2091C18.7 14.4021 18.3448 14.5508 18.001 14.6554C17.6573 14.7599 17.2792 14.8162 16.8667 14.8242C16.3167 14.8242 15.7934 14.7277 15.2969 14.5348C14.8003 14.3418 14.3458 14.0482 13.9333 13.6542C13.5208 14.0402 13.0663 14.3297 12.5698 14.5227C12.0733 14.7157 11.55 14.8162 11 14.8242C10.45 14.8242 9.92674 14.7277 9.43021 14.5348C8.93368 14.3418 8.47917 14.0482 8.06667 13.6542C7.65417 14.0402 7.19965 14.3297 6.70312 14.5227C6.2066 14.7157 5.68333 14.8162 5.13333 14.8242C4.72083 14.8242 4.34271 14.772 3.99896 14.6674C3.65521 14.5629 3.3 14.4101 2.93333 14.2091V19.4561ZM11 2.47272C10.8014 2.47272 10.6295 2.39632 10.4844 2.24354C10.3392 2.09075 10.2667 1.90982 10.2667 1.70075C10.2667 1.60425 10.2972 1.47961 10.3583 1.32682C10.4194 1.17404 10.4882 1.01321 10.5646 0.844342C10.641 0.675474 10.7212 0.514647 10.8052 0.361861C10.8892 0.209075 10.9542 0.0884549 11 0C11.0458 0.0884549 11.1069 0.209075 11.1833 0.361861C11.2597 0.514647 11.3399 0.675474 11.424 0.844342C11.508 1.01321 11.5806 1.17404 11.6417 1.32682C11.7028 1.47961 11.7333 1.60425 11.7333 1.70075C11.7333 1.90982 11.6608 2.09075 11.5156 2.24354C11.3705 2.39632 11.1986 2.47272 11 2.47272Z" fill="#204496"/>
</svg>
